<svg width="528pt" height="581pt" viewBox="0 0 528 581" version="1.1" xmlns="http://www.w3.org/2000/svg"> <g>  <path fill="#cc3300" d=" M 293.13 63.04 C 294.91 61.82 296.70 60.61 298.50 59.40 C 303.64 67.45 306.74 76.68 308.96 85.91 C 309.69 96.18 308.63 106.58 311.32 116.66 C 335.31 116.77 359.54 117.30 383.15 121.87 C 388.21 122.84 388.14 128.76 387.60 132.72 C 380.65 136.34 372.95 138.47 365.04 137.70 C 347.56 136.37 330.20 133.77 312.69 132.81 C 313.04 139.13 313.61 145.43 314.65 151.68 C 326.34 153.35 337.59 157.01 348.96 160.09 C 357.82 162.52 366.17 168.35 370.33 176.67 C 376.78 191.02 371.22 206.31 366.93 220.34 C 354.91 220.34 343.47 216.26 331.55 215.50 C 314.31 214.44 297.33 218.19 280.31 220.26 C 272.86 221.52 264.87 221.41 258.10 225.20 C 253.98 227.16 250.52 230.17 247.01 233.02 C 243.59 229.17 240.47 224.49 241.06 219.05 C 240.71 207.06 238.07 193.77 244.99 182.97 C 252.85 171.38 265.81 165.00 278.04 159.07 C 283.71 156.15 290.32 153.27 293.36 147.28 C 296.01 142.90 292.79 137.77 291.62 133.45 C 274.00 133.46 257.20 138.90 240.17 142.60 C 232.67 144.39 225.43 147.98 217.56 147.73 C 217.22 143.90 216.00 140.11 216.25 136.25 C 221.04 131.70 228.24 130.92 234.41 129.44 C 248.37 127.04 262.10 122.78 276.34 122.45 C 282.79 122.06 289.18 121.01 295.56 119.99 C 297.54 106.34 295.15 92.67 295.49 78.99 C 295.22 73.61 294.03 68.34 293.13 63.04 M 296.61 173.53 C 291.74 174.01 291.93 180.59 291.89 184.00 C 291.03 190.62 293.53 196.73 296.80 202.27 C 303.15 200.94 309.48 199.55 315.81 198.10 C 314.15 190.73 312.85 183.28 310.82 176.01 C 308.33 170.85 300.94 173.41 296.61 173.53 M 328.28 174.28 C 327.10 180.80 326.95 187.41 326.74 194.01 C 336.55 198.87 347.30 201.47 358.29 201.38 C 358.60 195.14 360.25 187.49 355.39 182.61 C 348.47 175.10 337.38 176.44 328.28 174.28 M 262.27 183.23 C 259.43 186.70 257.73 190.97 255.87 195.00 C 253.55 198.82 255.63 203.07 256.40 207.03 C 263.98 205.31 271.59 203.72 279.12 201.80 C 278.55 193.39 277.48 185.03 276.69 176.63 C 271.69 178.28 266.27 179.61 262.27 183.23 Z" /> <path fill="#cc3300" d=" M 176.34 61.45 C 181.47 61.43 188.27 60.35 190.90 66.05 C 196.24 74.71 202.86 82.79 206.60 92.32 C 209.79 104.37 215.90 116.06 214.84 128.85 C 212.87 134.04 209.97 140.50 203.89 141.64 C 189.16 146.21 173.31 150.73 163.11 163.11 C 154.62 171.81 146.34 183.77 133.00 184.52 C 134.51 177.96 133.74 169.40 140.31 165.33 C 147.20 159.91 152.06 152.02 160.08 148.11 C 168.13 143.57 175.27 137.22 184.13 134.21 C 189.53 132.34 194.91 130.07 199.26 126.26 C 202.11 123.21 199.99 118.68 198.83 115.28 C 195.26 107.43 192.18 99.36 188.29 91.66 C 183.86 84.68 174.76 79.54 175.88 70.10 C 175.99 67.94 176.22 63.61 176.34 61.45 Z" /> <path fill="#cc3300" d=" M 205.76 165.89 C 209.42 170.00 216.47 173.20 214.95 179.94 C 215.33 206.62 214.75 233.31 215.06 260.00 C 214.87 274.48 216.43 289.44 211.67 303.40 C 205.69 338.64 193.73 372.46 183.56 406.63 C 181.26 414.27 178.77 421.91 174.89 428.92 C 167.35 442.81 160.26 457.16 150.11 469.40 C 152.18 458.60 153.90 447.65 157.36 437.21 C 165.82 421.05 176.88 405.53 179.35 387.00 C 186.97 366.85 187.52 344.90 193.95 324.41 C 197.20 314.25 198.58 303.61 199.07 292.99 C 200.01 278.67 203.91 264.57 202.52 250.12 C 203.25 240.57 201.18 231.09 201.86 221.57 C 202.96 212.35 199.56 203.63 196.68 195.10 C 193.94 197.18 191.15 199.25 188.85 201.83 C 177.22 218.19 169.22 236.94 164.62 256.44 C 161.91 271.36 163.05 286.71 160.44 301.65 C 157.98 305.88 154.77 310.91 148.88 309.21 C 147.57 302.32 149.26 295.24 149.26 288.31 C 150.68 276.98 149.15 264.86 153.72 254.12 C 155.89 247.53 156.85 240.58 159.52 234.16 C 163.24 227.77 167.01 221.35 169.47 214.34 C 172.33 208.60 172.08 201.60 176.60 196.67 C 183.11 188.58 188.45 179.20 196.94 172.93 C 199.86 170.56 202.85 168.28 205.76 165.89 Z" /> <path fill="#cc3300" d=" M 300.87 235.76 C 314.86 232.51 329.36 234.07 343.42 236.10 C 360.13 235.10 377.37 240.67 389.10 252.90 C 392.37 256.14 393.65 260.72 395.18 264.93 C 396.38 268.84 394.22 274.16 389.90 274.90 C 387.18 275.75 385.80 272.05 383.99 271.01 C 377.14 262.86 367.63 257.28 357.21 255.23 C 342.00 250.21 325.71 252.32 310.00 251.85 C 301.56 252.26 292.68 251.23 284.66 254.47 C 270.77 259.45 256.58 263.54 242.38 267.53 C 238.79 268.10 234.60 269.92 231.30 267.72 C 224.36 260.64 222.96 250.65 220.73 241.47 C 223.51 241.22 226.30 241.05 229.09 241.50 C 232.63 242.93 235.62 245.67 239.45 246.41 C 244.18 246.96 249.02 246.74 253.68 245.78 C 269.41 242.45 285.24 239.54 300.87 235.76 Z" /> <path fill="#cc3300" d=" M 313.91 268.73 C 324.87 268.97 335.79 270.02 346.64 271.55 C 353.22 272.83 360.28 274.81 364.63 280.34 C 367.10 285.07 368.54 290.32 369.49 295.57 C 371.98 307.82 362.65 318.69 354.03 326.07 C 345.98 332.33 334.83 325.44 326.18 329.19 C 319.50 335.93 319.23 346.23 313.64 353.68 C 307.34 360.09 296.60 362.44 294.11 372.15 C 294.23 380.76 298.44 388.72 303.63 395.36 C 311.82 405.99 320.66 416.23 330.60 425.27 C 338.17 430.22 346.28 434.30 354.08 438.90 C 362.74 444.19 372.97 446.14 381.63 451.42 C 386.75 455.00 385.06 461.97 385.31 467.33 C 382.00 468.18 378.35 470.22 375.09 467.96 C 351.69 458.68 331.55 442.79 314.18 424.81 C 301.82 412.74 293.14 397.40 286.31 381.67 C 280.28 368.31 280.22 353.35 277.75 339.12 C 277.11 336.04 276.03 332.31 272.66 331.26 C 262.14 332.63 252.28 336.82 242.00 339.30 C 234.99 331.10 231.17 320.50 232.70 309.65 C 233.95 302.77 234.89 295.29 240.02 290.04 C 248.82 279.88 261.81 275.41 274.14 271.24 C 278.81 269.99 284.62 268.78 288.52 272.49 C 291.44 274.77 291.59 279.42 289.09 282.08 C 283.28 288.58 274.25 289.14 266.41 291.48 C 260.55 292.94 255.12 295.65 249.78 298.41 C 249.57 304.41 249.63 310.45 250.90 316.35 C 258.07 314.59 265.22 312.65 272.15 310.13 C 277.13 308.25 278.39 302.38 282.25 299.18 C 284.00 296.25 287.37 296.55 290.21 296.17 C 290.67 302.10 291.03 308.05 290.96 314.01 C 291.52 322.77 286.92 330.87 287.58 339.64 C 287.97 343.00 288.60 346.36 289.11 349.71 C 299.22 350.33 307.27 340.24 308.51 330.90 C 308.24 321.21 307.15 311.54 305.93 301.93 C 309.68 298.56 313.53 295.23 318.04 292.90 C 321.50 297.82 323.54 303.46 325.26 309.17 C 333.31 310.36 341.56 311.80 349.68 310.67 C 355.12 307.36 354.56 299.59 355.14 294.12 C 351.65 287.99 344.92 284.08 337.94 283.73 C 328.39 283.01 318.97 281.32 309.66 279.12 C 311.05 275.65 312.47 272.18 313.91 268.73 Z" /> </g> </svg>